<svg width="40" height="46" viewBox="0 0 40 46" fill="none" xmlns="http://www.w3.org/2000/svg">
<path d="M20 3.83334C10.81 3.83334 3.33331 12.4315 3.33331 23V30.9408C3.33331 32.9034 4.82831 34.5 6.66665 34.5H8.33331C8.77534 34.5 9.19926 34.2981 9.51182 33.9386C9.82438 33.5792 9.99998 33.0917 9.99998 32.5833V22.7259C9.99998 22.2176 9.82438 21.7301 9.51182 21.3706C9.19926 21.0112 8.77534 20.8093 8.33331 20.8093H6.81998C7.74665 13.3918 13.2966 7.66668 20 7.66668C26.7033 7.66668 32.2533 13.3918 33.18 20.8093H31.6666C31.2246 20.8093 30.8007 21.0112 30.4881 21.3706C30.1756 21.7301 30 22.2176 30 22.7259V34.5C30 36.6141 28.505 38.3333 26.6666 38.3333H23.3333V36.4167H16.6666V42.1667H26.6666C30.3433 42.1667 33.3333 38.7282 33.3333 34.5C35.1716 34.5 36.6666 32.9034 36.6666 30.9408V23C36.6666 12.4315 29.19 3.83334 20 3.83334Z" fill="#243B55"/>
</svg>
