<svg width="90" height="90" viewBox="0 0 90 90" fill="none" xmlns="http://www.w3.org/2000/svg">
<path d="M71.25 15.3333H55.575C54.8071 13.0925 53.377 11.151 51.4825 9.77737C49.588 8.40374 47.3227 7.66589 45 7.66589C42.6773 7.66589 40.412 8.40374 38.5175 9.77737C36.623 11.151 35.1929 13.0925 34.425 15.3333H18.75C16.7627 15.3394 14.8585 16.1491 13.4533 17.5856C12.048 19.022 11.2559 20.9685 11.25 23V76.6667C11.2559 78.6981 12.048 80.6446 13.4533 82.0811C14.8585 83.5176 16.7627 84.3273 18.75 84.3333H71.25C73.2373 84.3273 75.1415 83.5176 76.5467 82.0811C77.952 80.6446 78.7441 78.6981 78.75 76.6667V23C78.7441 20.9685 77.952 19.022 76.5467 17.5856C75.1415 16.1491 73.2373 15.3394 71.25 15.3333V15.3333ZM45 15.3333C45.7417 15.3333 46.4667 15.5582 47.0834 15.9794C47.7001 16.4006 48.1807 16.9993 48.4645 17.6997C48.7484 18.4002 48.8226 19.1709 48.6779 19.9145C48.5333 20.6581 48.1761 21.3411 47.6516 21.8772C47.1272 22.4133 46.459 22.7784 45.7316 22.9263C45.0042 23.0743 44.2502 22.9983 43.5649 22.7082C42.8797 22.4181 42.294 21.9267 41.882 21.2964C41.4699 20.666 41.25 19.9248 41.25 19.1667C41.253 18.1509 41.649 17.1777 42.3516 16.4594C43.0542 15.7412 44.0064 15.3364 45 15.3333V15.3333ZM37.5 34.5L47.9625 45.2103L57.4125 35.5503L52.5 30.6667H67.5V46L62.715 40.9745L47.97 56.0587L37.5 45.3483L27.8025 55.2537L22.5 49.8333L37.5 34.5ZM71.25 72.8333H18.75V65.1667H71.25V72.8333Z" fill="#243B55"/>
</svg>
