<svg width="37" height="36" viewBox="0 0 37 36" fill="none" xmlns="http://www.w3.org/2000/svg">
<path fill-rule="evenodd" clip-rule="evenodd" d="M18.3317 0C8.21 0 0 8.20833 0 18.3333C0 26.4333 5.25333 33.305 12.5383 35.7283C13.455 35.8983 13.7883 35.3317 13.7883 34.845C13.7883 34.4117 13.7733 33.2583 13.765 31.7283C8.665 32.835 7.58833 29.27 7.58833 29.27C6.755 27.1533 5.55333 26.5867 5.55333 26.5867C3.88833 25.4517 5.67833 25.4733 5.67833 25.4733C7.52 25.6033 8.48667 27.3633 8.48667 27.3633C10.1217 30.1633 12.7783 29.355 13.8233 28.8867C13.99 27.7033 14.4633 26.895 14.9867 26.4367C10.9167 25.9733 6.63667 24.4 6.63667 17.375C6.63667 15.375 7.35 13.7367 8.52333 12.455C8.33333 11.9917 7.705 10.1267 8.70333 7.605C8.70333 7.605 10.2417 7.11 13.745 9.48333C15.2405 9.07618 16.7834 8.86882 18.3333 8.86667C19.8917 8.87333 21.46 9.075 22.9233 9.48333C26.4233 7.11 27.96 7.60333 27.96 7.60333C28.96 10.1267 28.3317 11.9917 28.1433 12.455C29.3183 13.7367 30.0267 15.3733 30.0267 17.375C30.0267 24.4183 25.74 25.9683 21.6567 26.4217C22.315 26.9883 22.9017 28.105 22.9017 29.8167C22.9017 32.2667 22.8783 34.245 22.8783 34.845C22.8783 35.3367 23.21 35.9067 24.1383 35.7283C31.4183 33.2983 36.6667 26.4317 36.6667 18.3333C36.6667 8.20833 28.4567 0 18.3317 0Z" fill="white"/>
</svg>
